<?xml version="1.0" standalone="no"?>
<svg xmlns:xlink="http://www.w3.org/1999/xlink" id="wave" style="transform:rotate(0deg); transition: 0.3s" viewBox="0 0 1440 490" version="1.1" xmlns="http://www.w3.org/2000/svg"><defs><linearGradient id="sw-gradient-0" x1="0" x2="0" y1="1" y2="0"><stop stop-color="rgba(0, 0, 0, 1)" offset="0%"/><stop stop-color="rgba(9.463, 8.974, 7.893, 1)" offset="100%"/></linearGradient></defs><path style="transform:translate(0, 0px); opacity:1" fill="url(#sw-gradient-0)" d="M0,98L120,98C240,98,480,98,720,155.2C960,212,1200,327,1440,359.3C1680,392,1920,343,2160,294C2400,245,2640,196,2880,179.7C3120,163,3360,180,3600,163.3C3840,147,4080,98,4320,122.5C4560,147,4800,245,5040,236.8C5280,229,5520,114,5760,122.5C6000,131,6240,261,6480,285.8C6720,310,6960,229,7200,220.5C7440,212,7680,278,7920,253.2C8160,229,8400,114,8640,81.7C8880,49,9120,98,9360,147C9600,196,9840,245,10080,261.3C10320,278,10560,261,10800,236.8C11040,212,11280,180,11520,187.8C11760,196,12000,245,12240,294C12480,343,12720,392,12960,408.3C13200,425,13440,408,13680,359.3C13920,310,14160,229,14400,196C14640,163,14880,180,15120,155.2C15360,131,15600,65,15840,89.8C16080,114,16320,229,16560,294C16800,359,17040,376,17160,383.8L17280,392L17280,490L17160,490C17040,490,16800,490,16560,490C16320,490,16080,490,15840,490C15600,490,15360,490,15120,490C14880,490,14640,490,14400,490C14160,490,13920,490,13680,490C13440,490,13200,490,12960,490C12720,490,12480,490,12240,490C12000,490,11760,490,11520,490C11280,490,11040,490,10800,490C10560,490,10320,490,10080,490C9840,490,9600,490,9360,490C9120,490,8880,490,8640,490C8400,490,8160,490,7920,490C7680,490,7440,490,7200,490C6960,490,6720,490,6480,490C6240,490,6000,490,5760,490C5520,490,5280,490,5040,490C4800,490,4560,490,4320,490C4080,490,3840,490,3600,490C3360,490,3120,490,2880,490C2640,490,2400,490,2160,490C1920,490,1680,490,1440,490C1200,490,960,490,720,490C480,490,240,490,120,490L0,490Z"/><defs><linearGradient id="sw-gradient-1" x1="0" x2="0" y1="1" y2="0"><stop stop-color="rgba(18.57, 18.063, 17.901, 1)" offset="0%"/><stop stop-color="rgba(11.74, 11.36, 10.521, 1)" offset="100%"/></linearGradient></defs><path style="transform:translate(0, 50px); opacity:0.9" fill="url(#sw-gradient-1)" d="M0,147L120,163.3C240,180,480,212,720,245C960,278,1200,310,1440,302.2C1680,294,1920,245,2160,196C2400,147,2640,98,2880,106.2C3120,114,3360,180,3600,236.8C3840,294,4080,343,4320,302.2C4560,261,4800,131,5040,130.7C5280,131,5520,261,5760,285.8C6000,310,6240,229,6480,163.3C6720,98,6960,49,7200,81.7C7440,114,7680,229,7920,294C8160,359,8400,376,8640,392C8880,408,9120,425,9360,375.7C9600,327,9840,212,10080,187.8C10320,163,10560,229,10800,277.7C11040,327,11280,359,11520,310.3C11760,261,12000,131,12240,122.5C12480,114,12720,229,12960,277.7C13200,327,13440,310,13680,269.5C13920,229,14160,163,14400,187.8C14640,212,14880,327,15120,383.8C15360,441,15600,441,15840,416.5C16080,392,16320,343,16560,343C16800,343,17040,392,17160,416.5L17280,441L17280,490L17160,490C17040,490,16800,490,16560,490C16320,490,16080,490,15840,490C15600,490,15360,490,15120,490C14880,490,14640,490,14400,490C14160,490,13920,490,13680,490C13440,490,13200,490,12960,490C12720,490,12480,490,12240,490C12000,490,11760,490,11520,490C11280,490,11040,490,10800,490C10560,490,10320,490,10080,490C9840,490,9600,490,9360,490C9120,490,8880,490,8640,490C8400,490,8160,490,7920,490C7680,490,7440,490,7200,490C6960,490,6720,490,6480,490C6240,490,6000,490,5760,490C5520,490,5280,490,5040,490C4800,490,4560,490,4320,490C4080,490,3840,490,3600,490C3360,490,3120,490,2880,490C2640,490,2400,490,2160,490C1920,490,1680,490,1440,490C1200,490,960,490,720,490C480,490,240,490,120,490L0,490Z"/></svg>